<svg xmlns="http://www.w3.org/2000/svg" width="40" height="40" viewBox="0 0 40 40" fill="none">
  <rect width="40" height="40" rx="10" fill="white"/>
  <path d="M28.9999 14.73C28.9799 14.73 28.9499 14.73 28.9199 14.73C23.6299 14.2 18.3499 14 13.1199 14.53L11.0799 14.73C10.6599 14.77 10.2899 14.47 10.2499 14.05C10.2099 13.63 10.5099 13.27 10.9199 13.23L12.9599 13.03C18.2799 12.49 23.6699 12.7 29.0699 13.23C29.4799 13.27 29.7799 13.64 29.7399 14.05C29.7099 14.44 29.3799 14.73 28.9999 14.73Z" fill="#E21414"/>
  <path d="M16.5 13.72C16.46 13.72 16.42 13.72 16.37 13.71C15.97 13.64 15.69 13.25 15.76 12.85L15.98 11.54C16.14 10.58 16.36 9.25 18.69 9.25H21.31C23.65 9.25 23.87 10.63 24.02 11.55L24.24 12.85C24.31 13.26 24.03 13.65 23.63 13.71C23.22 13.78 22.83 13.5 22.77 13.1L22.55 11.8C22.41 10.93 22.38 10.76 21.32 10.76H18.7C17.64 10.76 17.62 10.9 17.47 11.79L17.24 13.09C17.18 13.46 16.86 13.72 16.5 13.72Z" fill="#E21414"/>
  <path d="M23.2099 30.75H16.7899C13.2999 30.75 13.1599 28.82 13.0499 27.26L12.3999 17.19C12.3699 16.78 12.6899 16.42 13.0999 16.39C13.5199 16.37 13.8699 16.68 13.8999 17.09L14.5499 27.16C14.6599 28.68 14.6999 29.25 16.7899 29.25H23.2099C25.3099 29.25 25.3499 28.68 25.4499 27.16L26.0999 17.09C26.1299 16.68 26.4899 16.37 26.8999 16.39C27.3099 16.42 27.6299 16.77 27.5999 17.19L26.9499 27.26C26.8399 28.82 26.6999 30.75 23.2099 30.75Z" fill="#E21414"/>
  <path d="M21.6601 25.25H18.3301C17.9201 25.25 17.5801 24.91 17.5801 24.5C17.5801 24.09 17.9201 23.75 18.3301 23.75H21.6601C22.0701 23.75 22.4101 24.09 22.4101 24.5C22.4101 24.91 22.0701 25.25 21.6601 25.25Z" fill="#E21414"/>
  <path d="M22.5 21.25H17.5C17.09 21.25 16.75 20.91 16.75 20.5C16.75 20.09 17.09 19.75 17.5 19.75H22.5C22.91 19.75 23.25 20.09 23.25 20.5C23.25 20.91 22.91 21.25 22.5 21.25Z" fill="#E21414"/>
</svg>